<svg width="20" height="20" viewBox="0 0 20 20" fill="none" xmlns="http://www.w3.org/2000/svg"><path d="M7.474 11.1a2.5 2.5 0 0 0-.948-.187A2.535 2.535 0 0 0 4 13.456 2.535 2.535 0 0 0 6.526 16a2.535 2.535 0 0 0 2.527-2.544v-2.84l5.368-1.332v1.815a2.5 2.5 0 0 0-.947-.186 2.535 2.535 0 0 0-2.527 2.543A2.535 2.535 0 0 0 13.474 16 2.535 2.535 0 0 0 16 13.456V4L7.474 6.143zm-.948 3.31a.95.95 0 0 1-.947-.954c0-.526.425-.954.947-.954.523 0 .948.428.948.954a.95.95 0 0 1-.948.954m6.948 0a.95.95 0 0 1-.948-.954c0-.526.425-.954.948-.954s.947.428.947.954a.95.95 0 0 1-.947.954M9.053 7.385l5.368-1.347v1.608L9.053 8.978z" fill="#fff"/></svg>