<svg width="20" height="20" viewBox="0 0 20 20" fill="none" xmlns="http://www.w3.org/2000/svg">
<path d="M6.25 4.375H13.75C14.7855 4.375 15.625 5.21447 15.625 6.25V11.4645C15.625 11.9617 15.4275 12.4387 15.0758 12.7903L12.7903 15.0758C12.4387 15.4275 11.9617 15.625 11.4645 15.625H6.25C5.21447 15.625 4.375 14.7855 4.375 13.75V6.25C4.375 5.21447 5.21447 4.375 6.25 4.375Z" stroke="#EBE7FF" stroke-width="1.25"/>
<path d="M10.7113 13.4554L13.4554 10.7113C13.7179 10.4488 13.532 10 13.1607 10H10.8333C10.3731 10 10 10.3731 10 10.8333V13.1607C10 13.532 10.4488 13.7179 10.7113 13.4554Z" fill="#EBE7FF"/>
</svg>
