<svg width="20" height="20" viewBox="0 0 20 20" fill="none" xmlns="http://www.w3.org/2000/svg"><g clip-path="url(#a)"><path d="M1.667 3.328a.833.833 0 0 1 .826-.828h15.014c.456 0 .826.37.826.828v13.345a.833.833 0 0 1-.826.827H2.493a.827.827 0 0 1-.826-.828zm5 .839v11.666h6.666V4.167zm-3.334 0v1.666H5V4.167zm11.667 0v1.666h1.667V4.167zM3.333 7.5v1.667H5V7.5zM15 7.5v1.667h1.667V7.5zM3.333 10.833V12.5H5v-1.667zm11.667 0V12.5h1.667v-1.667zM3.333 14.167v1.666H5v-1.666zm11.667 0v1.666h1.667v-1.666z" fill="#fff"/></g><defs><clipPath id="a"><path fill="#fff" d="M0 0h20v20H0z"/></clipPath></defs></svg>